<svg id="Layer_2" data-name="Layer 2" xmlns="http://www.w3.org/2000/svg" viewBox="0 0 1534.28 564.07"><defs><style>.cls-1{fill:#fff;}</style></defs><polygon class="cls-1" points="1051.36 288.64 758.16 288.64 744.41 366.59 1037.61 366.59 1051.36 288.64"/><polygon class="cls-1" points="764.88 247.69 1058.09 247.69 1071.83 169.74 778.63 169.74 764.88 247.69"/><polygon class="cls-1" points="1152.42 494.25 1195.94 247.4 1411.87 247.4 1368.35 494.25 1447.5 494.25 1504.72 169.74 1425.57 169.74 1425.45 170.4 1425.45 169.74 1130.46 169.74 1130.46 169.85 1130.46 169.85 1086.99 416.37 735.14 416.37 721.41 494.25 1152.42 494.25"/><path class="cls-1" d="M959,779.14l-.34-2.17a4,4,0,0,0-.8-2l-1.38-1.72-1.82-1.49-2.29-1-2.86-.91-3.2-.46-3.66-.23H932.49l-3.66,21.1h15.09a13.21,13.21,0,0,0,4.23-.58,10.24,10.24,0,0,0,3.43-1.14l2.63-1.61,2.06-1.72,1.6-2,.8-1.95Z" transform="translate(-232.81 -718.28)"/><polygon class="cls-1" points="942.6 53.26 925.45 87.33 947.97 87.33 942.83 53.26 942.6 53.26"/><path class="cls-1" d="M1169.72,718.28v0l-910.64,3.59L232.81,875.23l198.49-.79-55.66,324.24a42.8,42.8,0,1,0,29.17,1.39l64.36-365-179.19.7,13.44-78.4,505.85-2-13.43,78.4-198.93.78h0l-66.65,378h366L937,981.32H716.61v78h128l-14.12,80.09H622.32L669.2,873.51,1222,871.33v-.08l518.12-.36,26.91-152.61ZM410.37,1239.56a22.05,22.05,0,1,1-22.05-22A22,22,0,0,1,410.37,1239.56ZM961.15,833.39v0h-.07l-9.26-15.68-1.37-2-1.15-1.82-1.26-1.7-.91-1.59-.34-.45-.35-.46-.68-.91-.69-.8-.91-1.13-.92-1-.68-.45-.57-.57-.69-.45-.57-.34-.69-.34-.51-.21a8.24,8.24,0,0,1-.89-.22l0,0h-.05a1.3,1.3,0,0,1-.43-.21l-.51-.1-.46-.11-1-.12-1-.11h-8.34l-5.38,30.91h-20.8v0h-.09l13.6-77.05h33.5c1.06,0,2.17,0,3.31.11a25.06,25.06,0,0,1,3.32.45c1.67.15,2.76.27,3.26.34s1.44.29,2.85.63c.71.17,1.45.39,2.23.66s1.62.61,2.49,1a17.5,17.5,0,0,1,4.12,2.14l1.6,1a15.32,15.32,0,0,1,1.83,1.58l2.74,2.72,2.17,2.83,1.6,2.82.23.91.34.91.12.9.23.9.23.91.11.9v.46l.11.34v2.94c-.22.68-.38,1.17-.45,1.47l-.92,3.16-1.71,3.17-2.17,2.94-3.09,2.72-3.77,2-4.46,1.59a27.78,27.78,0,0,1-5.15,1l1.6.91,1.38.67,1.25.9,1.26.79,1,1,.91,1,.46.67.46.46.46.67.45.56.12.23.11.23.23.33v.23l.26.08h0l.08,0v.23l.23.22,15,24.26Zm224.52,0v0h-.08l-3.08-16.78h-30.21l-9.38,16.81h-22.74v0h-.1l47.55-78h22.07v0h.08l17.15,77.95Zm191.82,0h-20.7v0h-.09l13.71-77.05h20.7v0h.09Zm246-64.19h-31.67l-11.43,64.19h-20.8v0h-.09l11.43-64.16h-30.78v0h-.09l2.28-12.86h83.34v0h.1Z" transform="translate(-232.81 -718.28)"/></svg>