<?xml version="1.0" encoding="UTF-8"?>
<svg id="Layer_1" data-name="Layer 1" xmlns="http://www.w3.org/2000/svg" viewBox="0 0 135.55 49.84">
  <defs>
    <style>
      .cls-1 {
        fill: #fff;
        stroke-width: 0px;
      }
    </style>
  </defs>
  <polygon class="cls-1" points="92.89 25.5 66.99 25.5 65.77 32.39 91.68 32.39 92.89 25.5"/>
  <polygon class="cls-1" points="67.58 21.88 93.49 21.88 94.7 15 68.8 15 67.58 21.88"/>
  <polygon class="cls-1" points="101.82 43.67 105.67 21.86 124.74 21.86 120.9 43.67 127.89 43.67 132.95 15 125.95 15 125.94 15.06 125.94 15 99.88 15 99.88 15.01 99.88 15.01 96.04 36.79 64.95 36.79 63.74 43.67 101.82 43.67"/>
  <path class="cls-1" d="M64.16,5.38l-.03-.19c0-.06-.03-.13-.07-.18l-.12-.15-.16-.13-.2-.09-.25-.08-.28-.04-.32-.02h-.9l-.32,1.86h1.33c.13,0,.25-.01.37-.05.11-.02.21-.05.3-.1l.23-.14.18-.15.14-.18.07-.17.03-.19Z"/>
  <polygon class="cls-1" points="83.28 4.71 81.77 7.72 83.76 7.72 83.3 4.71 83.28 4.71"/>
  <path class="cls-1" d="M82.78,0h0L2.32.32,0,13.87l17.54-.07-4.92,28.65c-1.99.62-3.11,2.74-2.49,4.73.62,1.99,2.74,3.11,4.73,2.49,1.99-.62,3.11-2.74,2.49-4.73-.33-1.07-1.12-1.94-2.15-2.37l5.69-32.25-15.83.06,1.19-6.93,44.69-.18-1.19,6.93-17.58.07h0l-5.89,33.4h32.34l3.6-20.43h-19.47v6.89h11.31l-1.25,7.08h-18.39l4.14-23.49,48.84-.19h0s45.78-.04,45.78-.04l2.38-13.48h-52.77ZM15.69,46.06c0,1.08-.87,1.95-1.94,1.95-1.08,0-1.95-.87-1.95-1.94s.87-1.95,1.94-1.95h0c1.07,0,1.95.87,1.95,1.94,0,0,0,0,0,0ZM64.35,10.17h0l-.82-1.39-.12-.18-.1-.16-.11-.15-.08-.14-.03-.04-.03-.04-.06-.08-.06-.07-.08-.1-.08-.09-.06-.04-.05-.05-.06-.04-.05-.03-.06-.03-.05-.02s-.05-.01-.08-.02h0s-.03-.01-.04-.02h-.05s-.04-.02-.04-.02h-.09s-.09-.02-.09-.02h-.74l-.48,2.73h-1.85l1.2-6.81h2.96c.09,0,.19,0,.29,0,.1,0,.2.02.29.04.15.01.24.02.29.03s.13.03.25.06c.06.02.13.03.2.06s.14.05.22.09c.13.05.25.11.36.19l.14.09c.06.04.11.09.16.14l.24.24.19.25.14.25.02.08.03.08v.08s.03.08.03.08l.02.08v.08s0,.04,0,.04v.03s0,.26,0,.26c-.02.06-.03.1-.04.13l-.08.28-.15.28-.19.26-.27.24-.33.18-.39.14c-.15.04-.3.07-.46.09l.14.08.12.06.11.08.11.07.09.09.08.09.04.06.04.04.04.06.04.05v.02s.02.02.02.02l.02.03v.02h.02s0,0,0,0v.02l.02.02,1.33,2.14h-2.03ZM84.19,10.17h0l-.27-1.48h-2.67l-.83,1.49h-2.02l4.2-6.89h1.96l1.52,6.89h-1.88ZM101.14,10.17h-1.84l1.21-6.81h1.84l-1.21,6.81ZM122.87,4.5h-2.8l-1.01,5.67h-1.85l1.01-5.67h-2.73l.2-1.14h7.37l-.2,1.13Z"/>
</svg>