<?xml version="1.0" encoding="UTF-8"?>
<svg id="Layer_1" data-name="Layer 1" xmlns="http://www.w3.org/2000/svg" viewBox="0 0 24 24">
  <defs>
    <style>
      .cls-1 {
        fill: #969696;
        stroke-width: 0px;
      }
    </style>
  </defs>
  <path class="cls-1" d="M13.12,2.3v2.4c0,.82-.36,1.21-1.12,1.21s-1.12-.39-1.12-1.21v-2.4c0-.79.36-1.18,1.12-1.18s1.12.39,1.12,1.18ZM15.39,5.46l1.4-1.97c.46-.61,1.03-.73,1.61-.3s.64.97.18,1.64l-1.4,1.94c-.46.67-1,.73-1.61.3-.58-.42-.64-.94-.18-1.61ZM7.2,3.52l1.43,1.94c.46.67.39,1.18-.21,1.61-.58.46-1.12.36-1.58-.3l-1.43-1.94c-.46-.67-.39-1.18.21-1.61.58-.46,1.12-.36,1.58.3ZM11.99,7.28c2.61,0,4.74,2.12,4.74,4.74s-2.12,4.67-4.74,4.67-4.74-2.09-4.74-4.67,2.12-4.74,4.74-4.74ZM3.13,7.95l2.31.73c.76.24,1.03.7.79,1.43-.21.73-.73.94-1.52.7l-2.25-.73c-.76-.24-1.03-.73-.82-1.46.24-.7.73-.91,1.49-.67ZM18.58,8.68l2.28-.73c.79-.24,1.27-.03,1.49.67.24.73-.03,1.21-.82,1.43l-2.25.76c-.76.24-1.24.03-1.49-.7-.21-.73.03-1.18.79-1.43ZM11.99,14.63c1.46,0,2.64-1.18,2.64-2.61s-1.18-2.64-2.64-2.64-2.61,1.18-2.61,2.64,1.15,2.61,2.61,2.61ZM2.46,13.93l2.28-.73c.76-.24,1.27-.06,1.49.67.24.73-.03,1.18-.79,1.43l-2.31.76c-.76.24-1.24.03-1.49-.7-.21-.73.06-1.18.82-1.43ZM19.28,13.2l2.28.73c.76.24,1.03.7.79,1.43-.21.73-.7.94-1.49.7l-2.28-.76c-.79-.24-1-.7-.79-1.43.24-.73.73-.91,1.49-.67ZM5.4,19.15l1.43-1.91c.46-.67,1-.76,1.58-.3.61.42.67.94.21,1.61l-1.43,1.91c-.46.67-1,.79-1.61.36-.58-.42-.64-1-.18-1.67ZM17.18,17.24l1.4,1.91c.46.67.39,1.24-.18,1.67s-1.15.27-1.61-.33l-1.4-1.94c-.46-.67-.39-1.18.18-1.61.61-.42,1.15-.36,1.61.3ZM13.12,19.27v2.4c0,.82-.36,1.21-1.12,1.21s-1.12-.39-1.12-1.21v-2.4c0-.82.36-1.21,1.12-1.21s1.12.39,1.12,1.21Z"/>
</svg>