<?xml version="1.0" encoding="UTF-8"?>
<svg id="Layer_1" data-name="Layer 1" xmlns="http://www.w3.org/2000/svg" viewBox="0 0 24 24">
  <defs>
    <style>
      .cls-1 {
        fill: #969696;
        fill-rule: evenodd;
        stroke-width: 0px;
      }
    </style>
  </defs>
  <path class="cls-1" d="M12,17.38c-1.89,0-3.82-1.12-4.94-2.61-5.39,0-5.55,7.7-5.55,7.7h20.98s.42-7.73-5.63-7.73c-1.12,1.51-2.96,2.65-4.85,2.65ZM16.51,8.16c0,2.21-2.02,6.45-4.52,6.45s-4.51-4.24-4.51-6.45,2.02-4.01,4.51-4.01c2.5,0,4.52,1.8,4.52,4.01Z"/>
  <path class="cls-1" d="M18.52,6.25c0-.41-.58-.75-1.29-.75v-.85c0-.13.05-3.11-5.22-3.11s-5.22,2.98-5.22,3.11v.89s-.02,0-.04,0c-.71,0-1.29.33-1.29.74v3.62c0,.41.58.74,1.29.74s1.29-.33,1.29-.74v-3.62c0-.06-.04-.11-.06-.16v-.99c0-.09-.38-2.34,4.02-2.34s3.94,2.25,3.94,2.34v1.04s-.03.06-.03.1v3.7c0,.42.58.75,1.3.75.02,0,.03,0,.04,0v1.35h-1.29v1.27h2.56s-.01-7.07-.01-7.07Z"/>
</svg>